<svg xmlns="http://www.w3.org/2000/svg" width="96" height="96" viewBox="0 0 96 96">
  <path fill="#4D4F53" d="M14.4915676,19.7114317 L14.4915676,28.1287458 L15.2347249,27.3829079 C16.7210395,25.891232 19.0566768,25.891232 20.4368261,27.3829079 C21.9231407,28.8745838 21.9231407,31.2186459 20.4368261,32.6037736 L13.4299143,39.63596 C12.686757,40.381798 11.731269,40.7014428 10.775781,40.7014428 C9.82029306,40.7014428 8.86480509,40.381798 8.12164777,39.63596 L1.11473597,32.6037736 C-0.371578656,31.1120977 -0.371578656,28.7680355 1.11473597,27.3829079 C2.60105059,25.891232 4.93668786,25.891232 6.31683716,27.3829079 L7.05999447,28.1287458 L7.05999447,19.7114317 C7.05999447,8.84350721 15.8717169,0 26.7005806,0 L35.0876417,0 C37.104783,0 38.8034283,1.70477248 38.8034283,3.72918979 C38.8034283,5.7536071 37.104783,7.45837958 35.0876417,7.45837958 L26.8067459,7.45837958 C20.0121648,7.45837958 14.4915676,12.8923418 14.4915676,19.7114317 Z M94.964888,63.3962264 L87.9579762,56.36404 C86.4716616,54.872364 84.1360243,54.872364 82.755875,56.36404 L75.7489632,63.3962264 C74.2626486,64.8879023 74.2626486,67.2319645 75.7489632,68.6170921 C77.2352779,70.108768 79.5709151,70.108768 80.9510644,68.6170921 L81.6942217,67.8712542 L81.6942217,76.2885683 C81.6942217,83.0011099 76.1736246,88.5416204 69.4852087,88.5416204 L61.0981476,88.5416204 C59.0810064,88.5416204 57.3823611,90.2463929 57.3823611,92.2708102 C57.3823611,94.2952275 59.0810064,96 61.0981476,96 L69.2728781,96 C80.1017418,96 88.9134642,87.1564928 88.9134642,76.2885683 L88.9134642,67.8712542 L89.6566215,68.6170921 C90.3997788,69.3629301 91.3552668,69.6825749 92.3107548,69.6825749 C93.2662427,69.6825749 94.2217307,69.3629301 94.964888,68.6170921 C96.3450373,67.2319645 96.3450373,64.8879023 94.964888,63.3962264 Z M39.8650816,59.6670366 C41.8822228,59.6670366 43.5808681,57.9622642 43.5808681,55.9378468 C43.5808681,53.9134295 41.8822228,52.208657 39.8650816,52.208657 L3.76886923,52.208657 C1.75172795,52.208657 0.0530826652,53.9134295 0.0530826652,55.9378468 L0.0530826652,92.1642619 C0.0530826652,94.1886792 1.75172795,95.8934517 3.76886923,95.8934517 L39.8650816,95.8934517 C41.8822228,95.8934517 43.5808681,94.1886792 43.5808681,92.1642619 L43.5808681,71.8135405 C43.5808681,69.7891232 41.8822228,68.0843507 39.8650816,68.0843507 C37.8479403,68.0843507 36.149295,69.7891232 36.149295,71.8135405 L36.149295,88.5416204 L7.48465579,88.5416204 L7.48465579,59.7735849 L39.8650816,59.7735849 L39.8650816,59.6670366 Z M95.283384,40.381798 L95.283384,19.9245283 C95.283384,17.900111 93.5847387,16.1953385 91.5675975,16.1953385 C89.5504562,16.1953385 87.8518109,17.900111 87.8518109,19.9245283 L87.8518109,36.6526082 L59.1871717,36.6526082 L59.1871717,7.8845727 L91.5675975,7.8845727 C93.5847387,7.8845727 95.283384,6.17980022 95.283384,4.15538291 C95.283384,2.13096559 93.6909041,0.319644839 91.5675975,0.319644839 L55.4713851,0.319644839 C53.4542438,0.319644839 51.7555986,2.02441731 51.7555986,4.04883463 L51.7555986,40.2752497 C51.7555986,42.299667 53.4542438,44.0044395 55.4713851,44.0044395 L91.5675975,44.0044395 C93.6909041,44.1109878 95.283384,42.4062153 95.283384,40.381798 Z"/>
</svg>
