<?xml version="1.0" encoding="UTF-8"?>
<svg width="98px" height="95px" viewBox="0 0 98 95" version="1.1" xmlns="http://www.w3.org/2000/svg" xmlns:xlink="http://www.w3.org/1999/xlink">
    <!-- Generator: Sketch 51 (57462) - http://www.bohemiancoding.com/sketch -->
    <title>Illustrations/Net/cc431</title>
    <desc>Created with Sketch.</desc>
    <defs></defs>
    <g id="Page-1" stroke="none" stroke-width="1" fill="none" fill-rule="evenodd">
        <g id="Illustrations/Net/cc431">
            <path d="M52.3314922,80.3679787 C53.1723627,80.3679787 53.8548083,81.0466223 53.8548083,81.8839362 C53.8548083,82.72125 53.1723627,83.3998936 52.3314922,83.3998936 C51.490114,83.3998936 50.8081762,82.72125 50.8081762,81.8839362 C50.8081762,81.0466223 51.490114,80.3679787 52.3314922,80.3679787" id="Fill-1" fill="#F58E70"></path>
            <path d="M1.01554404,45.479734 C1.57663212,45.479734 2.03108808,45.9319947 2.03108808,46.4903723 C2.03108808,47.0482447 1.57663212,47.5010106 1.01554404,47.5010106 C0.454455959,47.5010106 0,47.0482447 0,46.4903723 C0,45.9319947 0.454455959,45.479734 1.01554404,45.479734" id="Fill-2" fill="#FFD15D"></path>
            <path d="M96.5340622,29.8052394 C97.0946425,29.8052394 97.5496062,30.2580053 97.5496062,30.8158777 C97.5496062,31.3742553 97.0946425,31.826516 96.5340622,31.826516 C95.9729741,31.826516 95.5185181,31.3742553 95.5185181,30.8158777 C95.5185181,30.2580053 95.9729741,29.8052394 96.5340622,29.8052394" id="Fill-3" fill="#FFD15D"></path>
            <polygon id="Fill-4" fill="#48515A" points="3.09334715 74.7781383 4.10889119 74.7781383 4.10889119 72.7568617 3.09334715 72.7568617"></polygon>
            <polygon id="Fill-5" fill="#48515A" points="3.09334715 79.8313298 4.10889119 79.8313298 4.10889119 77.8100532 3.09334715 77.8100532"></polygon>
            <polygon id="Fill-6" fill="#48515A" points="5.12443523 76.7994149 7.15552332 76.7994149 7.15552332 75.7887766 5.12443523 75.7887766"></polygon>
            <polygon id="Fill-7" fill="#48515A" points="0.0467150259 76.7994149 2.07780311 76.7994149 2.07780311 75.7887766 0.0467150259 75.7887766"></polygon>
            <polygon id="Fill-8" fill="#48515A" points="93.5310984 79.8338564 94.5466425 79.8338564 94.5466425 77.8125798 93.5310984 77.8125798"></polygon>
            <polygon id="Fill-9" fill="#48515A" points="93.5310984 84.8870479 94.5466425 84.8870479 94.5466425 82.8657713 93.5310984 82.8657713"></polygon>
            <polygon id="Fill-10" fill="#48515A" points="95.5621865 81.855133 97.5932746 81.855133 97.5932746 80.8444947 95.5621865 80.8444947"></polygon>
            <polygon id="Fill-11" fill="#48515A" points="90.4844663 81.855133 92.5155544 81.855133 92.5155544 80.8444947 90.4844663 80.8444947"></polygon>
            <polygon id="Fill-12" fill="#48515A" points="25.9567979 3.99101064 26.972342 3.99101064 26.972342 1.96973404 25.9567979 1.96973404"></polygon>
            <polygon id="Fill-13" fill="#48515A" points="25.9567979 9.04420213 26.972342 9.04420213 26.972342 7.02292553 25.9567979 7.02292553"></polygon>
            <polygon id="Fill-14" fill="#48515A" points="27.987886 6.01228723 30.0189741 6.01228723 30.0189741 5.00164894 27.987886 5.00164894"></polygon>
            <polygon id="Fill-15" fill="#48515A" points="22.9101658 6.01228723 24.9412539 6.01228723 24.9412539 5.00164894 22.9101658 5.00164894"></polygon>
            <path d="M38.1148912,45.9875798 C35.5907565,45.9875798 33.544943,48.0235106 33.544943,50.5354521 C33.544943,53.0468883 35.5907565,55.0833245 38.1148912,55.0833245 C40.6390259,55.0833245 42.6848394,53.0468883 42.6848394,50.5354521 C42.6817927,48.0250266 40.6375026,45.9906117 38.1148912,45.9875798" id="Fill-16" fill="#FFD15D"></path>
            <path d="M65.550829,20.7079787 C61.3444456,20.7079787 57.9342487,24.1017021 57.9342487,28.287766 C57.9342487,32.4743351 61.3444456,35.8675532 65.550829,35.8675532 C69.7577202,35.8675532 73.1674093,32.4743351 73.1674093,28.287766 C73.1628394,24.1037234 69.7556891,20.7130319 65.550829,20.7079787" id="Fill-17" fill="#5FE0ED"></path>
            <polygon id="Fill-18" fill="#48515A" points="47.269513 69.7249468 58.0175233 69.7249468 58.0175233 68.7143085 47.269513 68.7143085"></polygon>
            <path d="M89.411544,69.7249468 L82.2214922,69.7249468 L82.2214922,68.7143085 L89.411544,68.7143085 C90.5327047,68.7127926 91.4411088,67.8087766 91.4426321,66.6930319 L91.4426321,11.102367 C91.4411088,9.98662234 90.5327047,9.08260638 89.411544,9.08109043 L27.9736684,9.08109043 L27.9736684,8.07045213 L89.411544,8.07045213 C91.093285,8.0724734 92.4561451,9.42875 92.4581762,11.102367 L92.4581762,66.6930319 C92.4561451,68.3666489 91.093285,69.7229255 89.411544,69.7249468" id="Fill-19" fill="#48515A"></path>
            <path d="M18.8347876,69.7249468 L8.17411399,69.7249468 C6.49237306,69.7229255 5.12900518,68.3666489 5.12748187,66.6930319 L5.12748187,11.102367 C5.12900518,9.42875 6.49237306,8.0724734 8.17411399,8.07045213 L24.927544,8.07045213 L24.927544,9.08109043 L8.17411399,9.08109043 C7.05295337,9.08260638 6.14404145,9.98662234 6.14302591,11.102367 L6.14302591,66.6930319 C6.14404145,67.8087766 7.05295337,68.7127926 8.17411399,68.7143085 L18.8347876,68.7143085 L18.8347876,69.7249468" id="Fill-20" fill="#48515A"></path>
            <path d="M12.2332435,66.6930319 L87.3835026,66.6930319 L87.3835026,11.1079255 L12.2332435,11.1079255 L12.2332435,66.6930319 Z M9.69438342,40.4159309 C8.85351295,40.4159309 8.17106736,39.7372872 8.17106736,38.8999734 C8.17106736,38.0631649 8.85351295,37.384016 9.69438342,37.384016 C10.5357617,37.384016 11.2176995,38.0631649 11.2176995,38.8999734 C11.2176995,39.7372872 10.5357617,40.4159309 9.69438342,40.4159309 Z M89.411544,10.0917287 L8.17411399,10.0917287 C7.61353368,10.092234 7.15907772,10.5444947 7.15856995,11.102367 L7.15856995,66.6930319 C7.15907772,67.2509043 7.61353368,67.7026596 8.17411399,67.7036702 L89.411544,67.7036702 C89.9721244,67.7026596 90.4260725,67.2509043 90.4270881,66.6930319 L90.4270881,11.102367 C90.4260725,10.5444947 89.9721244,10.092234 89.411544,10.0917287 Z" id="Fill-21" fill="#DEDEDD"></path>
            <path d="M23.5032435,86.6571809 L22.4876995,86.6571809 L22.4876995,85.4075266 C22.482114,85.3888298 22.4734819,85.3671011 22.4638342,85.3413298 C20.7429948,80.9465691 19.8564249,76.2718617 19.8498238,71.5547074 L19.8498238,64.9279521 C19.8203731,63.4084574 20.9034508,62.0921011 22.4059482,61.8207447 C23.2803316,61.6868351 24.1709637,61.9389894 24.8432539,62.5120213 C24.8721969,62.5362766 24.9006321,62.5620479 24.9285596,62.5878191 C25.2113886,61.3027926 26.2822798,60.3381383 27.5948705,60.1855319 C28.4768705,60.1011436 29.3543005,60.3901862 30.0123731,60.9809043 C30.172829,61.1254255 30.3170363,61.2871277 30.442456,61.4624734 C30.8263316,60.8560904 31.4204249,60.4109043 32.1120104,60.2113032 C33.0701762,59.9399468 34.1014611,60.135 34.8930777,60.7368351 C34.9641658,60.7909043 35.0332228,60.8469947 35.0987254,60.9056117 L35.0987254,51.4627128 C35.0743523,50.0533777 35.9944352,48.8001862 37.3512021,48.3944149 C38.2809326,48.128617 39.2827668,48.3145745 40.0540725,48.8956915 C40.814715,49.4672074 41.2605389,50.3621277 41.2574922,51.3106117 L41.2574922,62.4155053 C42.0760207,61.4452926 43.2845181,60.8848936 44.5580104,60.8853989 L46.3748187,60.8853989 L46.3748187,72.6967287 C46.3697409,75.3061968 45.5060207,77.8423936 43.9156788,79.9167287 L40.2541347,84.6667287 C39.9804456,84.9805319 39.8164352,85.3746809 39.7869845,85.7895479 L39.7869845,86.6561702 L38.7714404,86.6561702 L38.7714404,85.7895479 C38.8003834,85.1189894 39.0613782,84.47875 39.5107565,83.978484 L43.108829,79.302766 C44.5646114,77.4042819 45.3547047,75.0843617 45.3592746,72.6967287 L45.3592746,61.8960372 L44.5580104,61.8960372 C42.7356166,61.8980585 41.2595233,63.3675266 41.2574922,65.1806117 L41.2574922,70.1494149 L40.2419482,70.1494149 L40.2419482,51.3106117 C40.2439793,50.6779521 39.9464249,50.0811702 39.4391606,49.6996543 C38.9192021,49.3110638 38.2458964,49.1887766 37.6213368,49.3686702 C36.7048083,49.6526596 36.0893886,50.5076596 36.1142694,51.4627128 L36.1142694,66.4893883 L35.0987254,66.4893883 L35.0987254,63.1254787 C35.0921244,62.498883 34.7884767,61.9122074 34.2796891,61.5428191 C33.7414508,61.1325 33.0397098,60.9990957 32.3872228,61.1840426 C31.5072539,61.4690426 30.9192539,62.294734 30.9405803,63.2154255 C30.9410881,63.9784574 30.9405803,66.4893883 30.9405803,66.4893883 L29.9250363,66.4893883 L29.9250363,63.0042021 C29.9179275,62.5145479 29.7011088,62.0506649 29.3299275,61.7297872 C28.8835959,61.3295745 28.2889948,61.1345213 27.6908394,61.1916223 C26.6265492,61.3315957 25.838487,62.2452128 25.8598135,63.3134574 L25.8740311,64.4110106 C25.8923109,64.5464362 25.9014508,64.6828723 25.9014508,64.8193085 L25.9014508,66.4893883 L24.8859067,66.4959574 L24.8595026,64.4913564 C24.7843523,64.0193883 24.5436684,63.5893617 24.1806114,63.2775798 C23.733772,62.8930319 23.1386632,62.7257713 22.5562487,62.8197606 C21.5498446,63.0158245 20.833886,63.9082181 20.8653679,64.9279521 L20.8653679,71.5547074 C20.8719689,76.1470479 21.7351813,80.6979521 23.410829,84.9769947 C23.4661762,85.1007979 23.497658,85.2342021 23.5032435,85.370133 L23.5032435,86.6571809" id="Fill-22" fill="#475059"></path>
            <path d="M78.7285285,65.429734 L77.7129845,65.429734 L77.7129845,63.2118883 C77.7190777,63.0759574 77.7505596,62.9425532 77.8059067,62.8182447 C79.4815544,58.5397074 80.3442591,53.9888032 80.3508601,49.3969681 L80.3508601,42.7702128 C80.382342,41.7499734 79.6668912,40.8575798 78.660487,40.6620213 C78.0775648,40.5685372 77.4829637,40.7363032 77.0361244,41.1198404 C76.6730674,41.4316223 76.4323834,41.8616489 76.3572332,42.333617 L76.330829,44.3382181 L75.315285,44.3316489 L75.315285,42.6610638 C75.315285,42.525133 75.3244249,42.3886968 75.3427047,42.2532713 L75.3569223,41.1486436 C75.3757098,40.0829255 74.5876477,39.1728457 73.5253886,39.0333777 C72.9277409,38.9757713 72.3326321,39.1708245 71.8868083,39.5715426 C71.5151192,39.8929255 71.2988083,40.3563032 71.2916995,40.8464628 C71.2911917,40.9778457 71.2911917,44.3316489 71.2911917,44.3316489 L70.2756477,44.3316489 L70.2756477,29.7067021 C70.3050984,28.7789362 69.7155751,27.9436436 68.8290052,27.6566223 C68.1770259,27.4716755 67.475285,27.6045745 66.9365389,28.0148936 C66.4277513,28.3842819 66.1241036,28.9714628 66.1175026,29.5980585 L66.1175026,44.3316489 L65.1019585,44.3316489 L65.1019585,29.3049734 C65.1273472,28.3499202 64.5114197,27.4944149 63.5948912,27.2104255 C62.9708394,27.0300266 62.2970259,27.1528191 61.7775751,27.5419149 C61.2703109,27.9229255 60.9727565,28.5197074 60.9747876,29.152367 L60.9747876,48.7329787 C60.9458446,49.4161702 60.6752021,50.066516 60.2100829,50.5698138 L59.3377306,51.4394681 C58.7979689,51.9730851 57.9266321,51.9730851 57.3873782,51.4399734 L52.6752539,46.9845745 C51.583544,45.9415957 49.8693057,45.910266 48.7390052,46.9118085 L47.9184456,47.6318883 C47.7981036,47.7764096 47.8077513,47.9886436 47.9418031,48.1215426 L61.6805907,61.7944681 C62.1452021,62.297766 62.4163523,62.948617 62.4452953,63.6318085 L62.4452953,65.4287234 L61.4297513,65.4287234 L61.4297513,63.6318085 C61.4003005,63.2169415 61.2362902,62.8227926 60.962601,62.5089894 L47.2238135,48.8360638 C46.6860829,48.2999202 46.6860829,47.4317819 47.2238135,46.8956383 L48.0672228,46.1538298 C49.5910466,44.803617 51.9024249,44.8460638 53.3749637,46.2518617 L58.0957202,50.7158511 C58.2389119,50.8603723 58.4719793,50.8644149 58.6197409,50.7244415 L59.4920933,49.8552926 C59.7657824,49.5414894 59.9297927,49.1478457 59.9592435,48.7329787 L59.9592435,29.152367 C59.9556891,28.203883 60.401513,27.3094681 61.1626632,26.7379521 C62.5107979,25.7192287 64.4337306,25.980984 65.457399,27.3231117 C65.5655544,27.4651064 65.6610155,27.6156915 65.7427668,27.7743617 C65.9113472,27.5621277 66.1068394,27.3721277 66.323658,27.2094149 C67.1152746,26.6070745 68.1460518,26.4120213 69.1042176,26.683883 C70.428487,27.0942021 71.3201347,28.3266755 71.2911917,29.7067021 L71.2911917,38.747367 C71.9396166,38.2066755 72.7794715,37.9474468 73.6218653,38.0272872 C74.934456,38.1798936 76.0053472,39.1445479 76.2886839,40.4290691 C76.3161036,40.4038032 76.3445389,40.3785372 76.3729741,40.3537766 C77.045772,39.78125 77.9358964,39.5290957 78.8107876,39.6625 C80.313285,39.9343617 81.3958549,41.2507181 81.3664041,42.7702128 L81.3664041,49.3969681 C81.3598031,54.113617 80.4737409,58.7883245 78.7529016,63.1830851 C78.7427461,63.2088564 78.7346218,63.2305851 78.7285285,63.2492819 L78.7285285,65.429734" id="Fill-23" fill="#475059"></path>
            <path d="M72.3727461,35.0767287 L71.6547565,34.3622074 C75.0258549,31.0073936 75.0258549,25.5681383 71.6547565,22.2133245 C68.283658,18.8585106 62.818,18.859016 59.4469016,22.2138298 C56.0763109,25.5681383 56.0763109,31.0073936 59.4469016,34.3622074 L58.7289119,35.0767287 C54.9612435,31.3272606 54.9617513,25.2482713 58.7294197,21.4988032 C62.4965803,17.7493351 68.6055855,17.7498404 72.3727461,21.4993085 C76.1404145,25.2482713 76.1404145,31.3272606 72.3727461,35.0767287" id="Fill-24" fill="#475059"></path>
            <path d="M33.4474508,55.1803457 C30.8694922,52.6148404 30.8694922,48.4555585 33.4474508,45.8900532 C36.0254093,43.3245479 40.2048808,43.3245479 42.7828394,45.8900532 C45.3602902,48.4555585 45.3602902,52.6148404 42.7828394,55.1803457 L42.064342,54.4658245 C44.2457306,52.2949734 44.2457306,48.7754255 42.064342,46.6045745 C39.8829534,44.4342287 36.3463212,44.4342287 34.1654404,46.6050798 C31.9840518,48.7754255 31.9840518,52.2949734 34.1654404,54.4658245 L33.4474508,55.1803457" id="Fill-25" fill="#475059"></path>
            <polygon id="Fill-26" fill="#475059" points="53.8705492 28.7940957 54.8860933 28.7940957 54.8860933 27.7834574 53.8705492 27.7834574"></polygon>
            <polygon id="Fill-27" fill="#475059" points="51.8394611 28.7940957 52.8550052 28.7940957 52.8550052 27.7834574 51.8394611 27.7834574"></polygon>
            <polygon id="Fill-28" fill="#475059" points="49.8083731 28.7940957 50.8239171 28.7940957 50.8239171 27.7834574 49.8083731 27.7834574"></polygon>
            <polygon id="Fill-29" fill="#475059" points="47.777285 28.7940957 48.792829 28.7940957 48.792829 27.7834574 47.777285 27.7834574"></polygon>
            <polygon id="Fill-30" fill="#475059" points="45.7461969 28.7940957 46.7617409 28.7940957 46.7617409 27.7834574 45.7461969 27.7834574"></polygon>
            <polygon id="Fill-31" fill="#475059" points="43.7151088 28.7940957 44.7306528 28.7940957 44.7306528 27.7834574 43.7151088 27.7834574"></polygon>
            <polygon id="Fill-32" fill="#475059" points="41.6840207 28.7940957 42.6995648 28.7940957 42.6995648 27.7834574 41.6840207 27.7834574"></polygon>
            <polygon id="Fill-33" fill="#475059" points="39.6529326 28.7940957 40.6684767 28.7940957 40.6684767 27.7834574 39.6529326 27.7834574"></polygon>
            <polygon id="Fill-34" fill="#475059" points="35.5907565 28.7940957 36.6063005 28.7940957 36.6063005 27.7834574 35.5907565 27.7834574"></polygon>
            <polygon id="Fill-35" fill="#475059" points="33.5596684 28.7940957 34.5752124 28.7940957 34.5752124 27.7834574 33.5596684 27.7834574"></polygon>
            <polygon id="Fill-36" fill="#475059" points="31.5285803 28.7940957 32.5441244 28.7940957 32.5441244 27.7834574 31.5285803 27.7834574"></polygon>
            <polygon id="Fill-37" fill="#475059" points="29.4974922 28.7940957 30.5130363 28.7940957 30.5130363 27.7834574 29.4974922 27.7834574"></polygon>
            <polygon id="Fill-38" fill="#475059" points="27.4664041 28.7940957 28.4819482 28.7940957 28.4819482 27.7834574 27.4664041 27.7834574"></polygon>
            <polygon id="Fill-39" fill="#475059" points="25.4353161 28.7940957 26.4508601 28.7940957 26.4508601 27.7834574 25.4353161 27.7834574"></polygon>
            <polygon id="Fill-40" fill="#475059" points="23.404228 28.7940957 24.419772 28.7940957 24.419772 27.7834574 23.404228 27.7834574"></polygon>
            <polygon id="Fill-41" fill="#475059" points="37.6223523 42.9430319 38.6378964 42.9430319 38.6378964 41.9323936 37.6223523 41.9323936"></polygon>
            <polygon id="Fill-42" fill="#475059" points="37.6223523 40.9217553 38.6378964 40.9217553 38.6378964 39.911117 37.6223523 39.911117"></polygon>
            <polygon id="Fill-43" fill="#475059" points="37.6223523 38.9004787 38.6378964 38.9004787 38.6378964 37.8898404 37.6223523 37.8898404"></polygon>
            <polygon id="Fill-44" fill="#475059" points="37.6223523 36.8792021 38.6378964 36.8792021 38.6378964 35.8685638 37.6223523 35.8685638"></polygon>
            <polygon id="Fill-45" fill="#475059" points="37.6223523 34.8579255 38.6378964 34.8579255 38.6378964 33.8472872 37.6223523 33.8472872"></polygon>
            <polygon id="Fill-46" fill="#475059" points="37.6223523 32.8366489 38.6378964 32.8366489 38.6378964 31.8260106 37.6223523 31.8260106"></polygon>
            <polygon id="Fill-47" fill="#475059" points="37.6223523 30.8153723 38.6378964 30.8153723 38.6378964 29.804734 37.6223523 29.804734"></polygon>
            <polygon id="Fill-48" fill="#475059" points="37.6223523 28.7940957 38.6378964 28.7940957 38.6378964 27.7834574 37.6223523 27.7834574"></polygon>
            <polygon id="Fill-49" fill="#475059" points="37.6223523 26.7723138 38.6378964 26.7723138 38.6378964 25.7616755 37.6223523 25.7616755"></polygon>
            <polygon id="Fill-50" fill="#475059" points="37.6223523 24.7510372 38.6378964 24.7510372 38.6378964 23.7403989 37.6223523 23.7403989"></polygon>
            <polygon id="Fill-51" fill="#475059" points="37.6223523 22.7297606 38.6378964 22.7297606 38.6378964 21.7191223 37.6223523 21.7191223"></polygon>
            <polygon id="Fill-52" fill="#475059" points="37.6223523 20.7089894 38.6378964 20.7089894 38.6378964 19.6978457 37.6223523 19.6978457"></polygon>
            <polyline id="Fill-53" fill="#475059" points="42.1917927 92.9625532 41.1762487 92.9625532 41.1762487 86.9052926 20.8653679 86.9052926 20.8653679 92.9625532 19.8498238 92.9625532 19.8498238 85.8946543 42.1917927 85.8946543 42.1917927 92.9625532"></polyline>
            <polyline id="Fill-54" fill="#475059" points="81.3135959 76.7827394 80.2980518 76.7827394 80.2980518 65.66875 59.987171 65.66875 59.987171 76.7827394 58.9716269 76.7827394 58.9716269 64.6581117 81.3135959 64.6581117 81.3135959 76.7827394"></polyline>
            <polygon id="Fill-55" fill="#475059" points="58.9487772 78.8196809 59.9643212 78.8196809 59.9643212 77.8090426 58.9487772 77.8090426"></polygon>
            <polygon id="Fill-56" fill="#475059" points="80.2878964 78.8196809 81.3034404 78.8196809 81.3034404 77.8090426 80.2878964 77.8090426"></polygon>
            <polygon id="Fill-57" fill="#475059" points="41.1660933 95 42.1816373 95 42.1816373 93.9893617 41.1660933 93.9893617"></polygon>
            <polygon id="Fill-58" fill="#475059" points="19.8269741 95 20.8425181 95 20.8425181 93.9893617 19.8269741 93.9893617"></polygon>
            <path d="M70.588943,85.3342553 C71.7111192,85.3342553 72.6200311,86.2392819 72.6200311,87.3555319 C72.6200311,88.4717819 71.7111192,89.3768085 70.588943,89.3768085 C69.4672746,89.3768085 68.5578549,88.4717819 68.5578549,87.3555319 C68.5578549,86.2392819 69.4672746,85.3342553 70.588943,85.3342553" id="Fill-59" fill="#FFD15D"></path>
            <path d="M70.588943,90.3874468 C68.9066943,90.3874468 67.5423109,89.0301596 67.5423109,87.3555319 C67.5423109,85.6809043 68.9066943,84.323617 70.588943,84.323617 C72.2716995,84.323617 73.6355751,85.6809043 73.6355751,87.3555319 C73.6340518,89.0291489 72.2711917,90.3854255 70.588943,90.3874468 Z M70.588943,83.3129787 C68.3456062,83.3129787 66.5267668,85.1230319 66.5267668,87.3555319 C66.5267668,89.5880319 68.3456062,91.3980851 70.588943,91.3980851 C72.8327876,91.3980851 74.6511192,89.5880319 74.6511192,87.3555319 C74.6511192,85.1230319 72.8327876,83.3129787 70.5894508,83.3129787 L70.588943,83.3129787 Z" id="Fill-60" fill="#FFD15D"></path>
            <path d="M52.810829,1.42398936 C51.9699585,1.42398936 51.287513,2.10263298 51.287513,2.93994681 C51.287513,3.77726064 51.9699585,4.45590426 52.810829,4.45590426 C53.6522073,4.45590426 54.3341451,3.77726064 54.3341451,2.93994681 C54.3336373,2.1031383 53.6522073,1.425 52.810829,1.42398936 Z M52.810829,5.46654255 C51.4088705,5.46654255 50.2724767,4.33513298 50.2724767,2.93994681 C50.2724767,1.54476064 51.4088705,0.413351064 52.810829,0.413351064 C54.2132953,0.413351064 55.3496891,1.54476064 55.3496891,2.93994681 C55.3481658,4.33462766 54.2127876,5.4650266 52.810829,5.46654255 Z" id="Fill-61" fill="#48515A"></path>
            <path d="M19.7858446,26.7051064 C18.9449741,26.7051064 18.2625285,27.38375 18.2625285,28.2210638 C18.2625285,29.0583777 18.9449741,29.7370213 19.7858446,29.7370213 C20.6272228,29.7370213 21.3091606,29.0583777 21.3091606,28.2210638 C21.3086528,27.3842553 20.6272228,26.706117 19.7858446,26.7051064 Z M19.7858446,30.7476596 C18.383886,30.7476596 17.2469845,29.6167553 17.2469845,28.2210638 C17.2469845,26.8258777 18.383886,25.6944681 19.7858446,25.6944681 C21.1883109,25.6944681 22.3247047,26.8258777 22.3247047,28.2210638 C22.3231813,29.6157447 21.1878031,30.7461436 19.7858446,30.7476596 Z" id="Fill-62" fill="#48515A"></path>
            <path d="M38.0768083,14.5703723 C37.2354301,14.5703723 36.5534922,15.249016 36.5534922,16.0863298 C36.5534922,16.9231383 37.2354301,17.6022872 38.0768083,17.6022872 C38.9181865,17.6022872 39.6001244,16.9231383 39.6001244,16.0863298 C39.5991088,15.249016 38.9176788,14.5708777 38.0768083,14.5703723 Z M38.0768083,18.6129255 C36.6748497,18.6129255 35.5379482,17.481516 35.5379482,16.0863298 C35.5379482,14.6906383 36.6748497,13.559734 38.0768083,13.559734 C39.4787668,13.559734 40.6156684,14.6906383 40.6156684,16.0863298 C40.6141451,17.4810106 39.4782591,18.6109043 38.0768083,18.6129255 Z" id="Fill-63" fill="#48515A"></path>
        </g>
    </g>
</svg>