<svg xmlns="http://www.w3.org/2000/svg" width="151" height="150" viewBox="0 0 151 150">
  <defs>
    <filter id="box-a" width="102.3%" height="101.4%" x="-1.1%" y="-.7%" filterUnits="objectBoundingBox">
      <feOffset dx="1" dy="1" in="SourceAlpha" result="shadowOffsetOuter1"/>
      <feGaussianBlur in="shadowOffsetOuter1" result="shadowBlurOuter1" stdDeviation="7.5"/>
      <feColorMatrix in="shadowBlurOuter1" result="shadowMatrixOuter1" values="0 0 0 0 0.519451531   0 0 0 0 0.519451531   0 0 0 0 0.519451531  0 0 0 0.269559556 0"/>
      <feMerge>
        <feMergeNode in="shadowMatrixOuter1"/>
        <feMergeNode in="SourceGraphic"/>
      </feMerge>
    </filter>
  </defs>
  <path fill="#4D4F53" d="M20.4808196,119.744526 L99.2637059,119.744526 C110.596426,119.744526 119.744526,110.596426 119.744526,99.2637059 L119.744526,20.4808196 C119.744526,9.28463824 110.596426,0 99.2637059,0 L59.8039934,0 C57.2097562,0 55.0251355,2.18462076 55.0251355,4.77885792 L55.0251355,71.0001748 L46.0135748,61.9886141 C44.1020316,60.077071 41.0981781,60.077071 39.3231737,61.9886141 C37.4116306,63.9001573 37.4116306,66.9040109 39.3231737,68.6790152 L56.3905234,85.7463649 C57.346295,86.7021365 58.5751442,87.1117529 59.8039934,87.1117529 C61.0328426,87.1117529 62.2616917,86.7021365 63.2174633,85.7463649 L80.284813,68.9520928 C82.1963562,67.0405497 82.1963562,64.0366961 80.284813,62.2616917 C78.3732699,60.4866874 75.3694163,60.3501486 73.5944119,62.2616917 L64.5828513,71.2732524 L64.5828513,9.83079343 L99.1271671,9.83079343 C105.134874,9.83079343 110.050271,14.7461901 110.050271,20.7538972 L110.050271,99.5367835 C110.050271,105.544491 105.134874,110.459887 99.1271671,110.459887 L20.4808196,110.459887 C14.4731126,110.459887 9.55771584,105.544491 9.55771584,99.5367835 L9.55771584,20.4808196 C9.55771584,14.4731126 14.4731126,9.55771584 20.4808196,9.55771584 L30.7212295,9.55771584 C33.3154666,9.55771584 35.5000874,7.37309507 35.5000874,4.77885792 C35.5000874,2.18462076 33.3154666,0 30.7212295,0 L20.4808196,0 C9.14809944,0 0,9.14809944 0,20.4808196 L0,99.2637059 C-3.63812441e-15,110.596426 9.14809944,119.744526 20.4808196,119.744526 Z" filter="url(#box-a)" transform="translate(14.628 13.766)"/>
</svg>
