<svg xmlns="http://www.w3.org/2000/svg" width="128" height="152" viewBox="0 0 128 152">
  <defs>
    <filter id="clipboard-a" width="102.3%" height="101.4%" x="-1.1%" y="-.7%" filterUnits="objectBoundingBox">
      <feOffset dx="1" dy="1" in="SourceAlpha" result="shadowOffsetOuter1"/>
      <feGaussianBlur in="shadowOffsetOuter1" result="shadowBlurOuter1" stdDeviation="7.5"/>
      <feColorMatrix in="shadowBlurOuter1" result="shadowMatrixOuter1" values="0 0 0 0 0.519451531   0 0 0 0 0.519451531   0 0 0 0 0.519451531  0 0 0 0.269559556 0"/>
      <feMerge>
        <feMergeNode in="shadowMatrixOuter1"/>
        <feMergeNode in="SourceGraphic"/>
      </feMerge>
    </filter>
  </defs>
  <path fill="#4D4F53" d="M97.6569343,17.9080106 L97.6569343,117.252033 C97.6569343,119.748774 95.6715328,121.851293 93.3138686,121.851293 L4.59124088,121.851293 C2.23357664,121.851293 0.248175182,119.748774 0.248175182,117.252033 L0.248175182,17.9080106 C0.248175182,15.4112693 2.23357664,13.3087503 4.59124088,13.3087503 L15.2627737,13.3087503 C17.620438,13.3087503 19.6058394,15.4112693 19.6058394,17.9080106 C19.6058394,20.4047519 17.620438,22.5072709 15.2627737,22.5072709 L8.93430657,22.5072709 L8.93430657,112.652772 L88.9708029,112.652772 L88.9708029,22.5072709 L66.6350365,22.5072709 C64.2773723,22.5072709 62.2919708,20.4047519 62.2919708,17.9080106 L62.2919708,9.6293421 L35.7372263,9.6293421 L35.7372263,23.8213453 L57.3284672,23.8213453 C59.6861314,23.8213453 61.6715328,25.9238642 61.6715328,28.4206055 C61.6715328,30.9173468 59.6861314,33.0198658 57.3284672,33.0198658 L31.3941606,33.0198658 C29.0364964,33.0198658 27.0510949,30.9173468 27.0510949,28.4206055 L27.0510949,5.03008182 C27.0510949,2.53334052 29.0364964,0.430821537 31.3941606,0.430821537 L66.5109489,0.430821537 C68.8686131,0.430821537 70.8540146,2.53334052 70.8540146,5.03008182 L70.8540146,13.3087503 L93.3138686,13.3087503 C95.7956204,13.3087503 97.6569343,15.4112693 97.6569343,17.9080106 Z M42.810219,85.7142479 C43.9270073,85.7142479 45.0437956,85.3200256 45.9124088,84.4001735 L68.4963504,60.6154275 C70.2335766,58.7757234 70.2335766,55.8847598 68.4963504,54.1764631 C66.7591241,52.336759 64.0291971,52.336759 62.4160584,54.1764631 L42.810219,74.6760232 L35.7372263,67.1857993 C34,65.3460952 31.270073,65.3460952 29.6569343,67.1857993 C28.0437956,69.0255035 27.919708,71.9164671 29.6569343,73.6247637 L39.8321168,84.4001735 C40.5766423,85.3200256 41.6934307,85.7142479 42.810219,85.7142479 Z" filter="url(#clipboard-a)" transform="translate(13.796 13.526)"/>
</svg>
