<?xml version="1.0" encoding="UTF-8"?>
<svg width="98px" height="95px" viewBox="0 0 98 95" version="1.1" xmlns="http://www.w3.org/2000/svg" xmlns:xlink="http://www.w3.org/1999/xlink">
    <!-- Generator: Sketch 51 (57462) - http://www.bohemiancoding.com/sketch -->
    <title>Illustrations/Biz/cc185</title>
    <desc>Created with Sketch.</desc>
    <defs></defs>
    <g id="Page-1" stroke="none" stroke-width="1" fill="none" fill-rule="evenodd">
        <g id="Illustrations/Biz/cc185">
            <polyline id="Fill-1" fill="#DFE0E0" points="37.5497908 67.73614 32.6764212 67.73614 28.2308685 74.6408209 33.1042381 74.6408209 37.5497908 67.73614"></polyline>
            <polyline id="Fill-2" fill="#DFE0E0" points="67.1892346 67.73614 62.315865 67.73614 66.7614177 74.6408209 71.6347873 74.6408209 67.1892346 67.73614"></polyline>
            <polygon id="Fill-3" fill="#DFE0E0" points="48.2493711 74.6408209 52.4079798 74.6408209 52.4079798 67.73614 48.2493711 67.73614"></polygon>
            <polygon id="Fill-4" fill="#DEDEDD" points="6.40337113 18.4169911 93.7341537 18.4169911 93.7341537 13.4850762 6.40337113 13.4850762"></polygon>
            <polyline id="Fill-5" fill="#48515A" points="94.5144127 68.2293315 6.14397791 68.2293315 6.14397791 13.4850762 7.18363009 13.4850762 7.18363009 67.2429485 93.4747605 67.2429485 93.4747605 13.4850762 94.5144127 13.4850762 94.5144127 68.2293315"></polyline>
            <polyline id="Fill-6" fill="#48515A" points="97.6333692 13.9782677 53.6202143 13.9782677 53.6202143 12.9918847 96.593717 12.9918847 96.593717 9.04635277 54.8807925 9.04635277 54.8807925 8.05996979 97.6333692 8.05996979 97.6333692 13.9782677"></polyline>
            <polyline id="Fill-7" fill="#48515A" points="35.8598362 13.9782677 3.02502139 13.9782677 3.02502139 8.05996979 34.9064751 8.05996979 34.9064751 9.04635277 4.06467357 9.04635277 4.06467357 12.9918847 35.8598362 12.9918847 35.8598362 13.9782677"></polyline>
            <polygon id="Fill-8" fill="#48515A" points="84.4438219 2.11060085 85.4834741 2.11060085 85.4834741 0.137834894 84.4438219 0.137834894"></polygon>
            <polygon id="Fill-9" fill="#48515A" points="84.4438219 7.04251574 85.4834741 7.04251574 85.4834741 5.06974979 84.4438219 5.06974979"></polygon>
            <polygon id="Fill-10" fill="#48515A" points="86.5231263 4.08336681 88.6024306 4.08336681 88.6024306 3.09698383 86.5231263 3.09698383"></polygon>
            <polygon id="Fill-11" fill="#48515A" points="81.3248654 4.08336681 83.4041697 4.08336681 83.4041697 3.09698383 81.3248654 3.09698383"></polygon>
            <polygon id="Fill-12" fill="#48515A" points="27.2738687 23.8549204 28.3135209 23.8549204 28.3135209 21.8821545 27.2738687 21.8821545"></polygon>
            <polygon id="Fill-13" fill="#48515A" points="27.2738687 28.7868353 28.3135209 28.7868353 28.3135209 26.8140694 27.2738687 26.8140694"></polygon>
            <polygon id="Fill-14" fill="#48515A" points="29.353173 25.8276864 31.4324774 25.8276864 31.4324774 24.8413034 29.353173 24.8413034"></polygon>
            <polygon id="Fill-15" fill="#48515A" points="24.1549122 25.8276864 26.2342165 25.8276864 26.2342165 24.8413034 24.1549122 24.8413034"></polygon>
            <polygon id="Fill-16" fill="#48515A" points="3.55628365 77.1087511 4.59593583 77.1087511 4.59593583 75.1359851 3.55628365 75.1359851"></polygon>
            <polygon id="Fill-17" fill="#48515A" points="3.55628365 82.040666 4.59593583 82.040666 4.59593583 80.0679 3.55628365 80.0679"></polygon>
            <polygon id="Fill-18" fill="#48515A" points="5.635588 79.081517 7.71489235 79.081517 7.71489235 78.095134 5.635588 78.095134"></polygon>
            <polygon id="Fill-19" fill="#48515A" points="0.43732713 79.081517 2.51663148 79.081517 2.51663148 78.095134 0.43732713 78.095134"></polygon>
            <path d="M16.7640249,93.8757821 L20.42516,93.8757821 L36.6317779,68.2293315 L32.9706428,68.2293315 L16.7640249,93.8757821 Z M21.014123,94.8621651 L14.928519,94.8621651 L32.3816798,67.2429485 L38.4672838,67.2429485 L21.014123,94.8621651 Z" id="Fill-20" fill="#48515A"></path>
            <path d="M79.4404958,93.8757821 L83.101631,93.8757821 L66.895013,68.2293315 L63.2338779,68.2293315 L79.4404958,93.8757821 Z M84.9371369,94.8621651 L78.8515329,94.8621651 L61.398372,67.2429485 L67.483976,67.2429485 L84.9371369,94.8621651 Z" id="Fill-21" fill="#48515A"></path>
            <path d="M48.769717,93.8757821 L51.8886736,93.8757821 L51.8886736,68.2293315 L48.769717,68.2293315 L48.769717,93.8757821 Z M47.7300649,94.8621651 L52.9283257,94.8621651 L52.9283257,67.2429485 L47.7300649,67.2429485 L47.7300649,94.8621651 Z" id="Fill-22" fill="#48515A"></path>
            <path d="M76.2097767,62.5457928 L65.2669177,38.6023323 L56.1096614,58.6387298 C53.7922767,63.7102179 50.0339341,63.7102179 47.7165494,58.6387298 L44.4941475,51.5885574 L41.2722654,58.6387298 C38.9543609,63.7102179 35.1965381,63.7102179 32.8786336,58.6387298 L29.7492805,51.7917523 L24.8343249,62.5457928 L76.2097767,62.5457928" id="Fill-23" fill="#5FE0ED"></path>
            <path d="M29.7492805,51.7917523 L26.5268786,44.74158 C24.2094939,39.6700919 20.4511513,39.6700919 18.1337666,44.74158 L9.99640904,62.5457928 L24.8343249,62.5457928 L29.7492805,51.7917523" id="Fill-24" fill="#FFD15D"></path>
            <path d="M56.1096614,58.6387298 L65.2669177,38.6023323 L62.0450357,31.55216 C59.7271311,26.4806719 55.9693083,26.4806719 53.6514038,31.55216 L44.4941475,51.5885574 L47.7165494,58.6387298 C50.0339341,63.7102179 53.7922767,63.7102179 56.1096614,58.6387298" id="Fill-25" fill="#FFD15D"></path>
            <path d="M41.2722654,58.6387298 L44.4941475,51.5885574 L41.3647944,44.74158 C39.0468899,39.6700919 35.2890671,39.6700919 32.9711626,44.74158 L29.7492805,51.7917523 L32.8786336,58.6387298 C35.1965381,63.7102179 38.9543609,63.7102179 41.2722654,58.6387298" id="Fill-26" fill="#F58E70"></path>
            <path d="M91.0476925,62.5457928 L76.8829515,31.55216 C74.565047,26.4806719 70.8072242,26.4806719 68.4893197,31.55216 L65.2669177,38.6023323 L76.2097767,62.5457928 L91.0476925,62.5457928" id="Fill-27" fill="#F58E70"></path>
            <path d="M76.1473976,31.237997 C75.5740294,31.237997 75.1077454,31.6803898 75.1077454,32.22438 C75.1077454,32.7683702 75.5740294,33.210763 76.1473976,33.210763 C76.7202459,33.210763 77.1870497,32.7683702 77.1870497,32.22438 C77.1870497,31.6803898 76.7202459,31.237997 76.1473976,31.237997 Z M76.1473976,34.197146 C75.0006612,34.197146 74.0680932,33.3118672 74.0680932,32.22438 C74.0680932,31.1363996 75.0006612,30.251614 76.1473976,30.251614 C77.2941339,30.251614 78.2267019,31.1363996 78.2267019,32.22438 C78.2267019,33.3118672 77.2941339,34.197146 76.1473976,34.197146 Z" id="Fill-28" fill="#48515A"></path>
            <path d="M81.3451386,36.1694187 C80.7717704,36.1694187 80.3054864,36.6118115 80.3054864,37.1558017 C80.3054864,37.6997919 80.7717704,38.1421847 81.3451386,38.1421847 C81.917987,38.1421847 82.3847908,37.6997919 82.3847908,37.1558017 C82.3847908,36.6118115 81.917987,36.1694187 81.3451386,36.1694187 Z M81.3451386,39.1285677 C80.1984023,39.1285677 79.2658343,38.2432889 79.2658343,37.1558017 C79.2658343,36.0678213 80.1984023,35.1830357 81.3451386,35.1830357 C82.491875,35.1830357 83.424443,36.0678213 83.424443,37.1558017 C83.424443,38.2432889 82.491875,39.1285677 81.3451386,39.1285677 Z" id="Fill-29" fill="#48515A"></path>
            <polyline id="Fill-30" fill="#48515A" points="74.9554363 38.9845557 74.2204023 38.287183 82.5376197 30.3961191 83.2726537 31.0934919 74.9554363 38.9845557"></polyline>
            <path d="M80.8918503,49.3765936 L80.8934097,76.5825157 C80.8934097,77.3982545 81.5930957,78.0620902 82.452888,78.0620902 C83.3126803,78.061597 84.0123663,77.3982545 84.0123663,76.5820226 L84.0108068,49.3761004 L82.4513285,46.1678898 L80.8918503,49.3765936 Z M82.452888,79.0484732 C81.0197275,79.0484732 79.8537576,77.9422447 79.8537576,76.5825157 L79.8521981,49.1600826 L82.4513285,43.811914 L85.050459,49.1595894 L85.0520184,76.5820226 C85.0520184,77.9417515 83.8860485,79.04798 82.452888,79.0484732 Z" id="Fill-31" fill="#475059"></path>
            <polygon id="Fill-32" fill="#475059" points="80.5820339 73.8157115 84.5321923 73.8157115 84.5321923 72.8293285 80.5820339 72.8293285"></polygon>
            <polyline id="Fill-33" fill="#475059" points="81.9174671 73.32252 81.9164275 49.6473557 82.9560797 49.6473557 82.9571193 73.32252 81.9174671 73.32252"></polyline>
            <path d="M10.2433264,21.8047234 C5.3704767,21.8047234 1.40628296,25.5658017 1.40628296,30.1889787 C1.40628296,34.8121557 5.3704767,38.573234 10.2433264,38.573234 C15.1161762,38.573234 19.0803699,34.8121557 19.0803699,30.1889787 C19.0803699,25.5658017 15.1161762,21.8047234 10.2433264,21.8047234 Z M10.2433264,39.559617 C4.79762835,39.559617 0.366630783,35.356146 0.366630783,30.1889787 C0.366630783,25.0223047 4.79762835,20.8183404 10.2433264,20.8183404 C15.6895443,20.8183404 20.1200221,25.0223047 20.1200221,30.1889787 C20.1200221,35.356146 15.6895443,39.559617 10.2433264,39.559617 Z" id="Fill-34" fill="#F58E70"></path>
            <path d="M10.2433264,35.1213868 C9.95638243,35.1213868 9.72350035,34.900437 9.72350035,34.6281953 L9.72350035,29.6957872 C9.72350035,29.4235455 9.95638243,29.2025957 10.2433264,29.2025957 L13.882109,29.2025957 C14.1695729,29.2025957 14.4019351,29.4235455 14.4019351,29.6957872 C14.4019351,29.9680289 14.1695729,30.1889787 13.882109,30.1889787 L10.7631525,30.1889787 L10.7631525,34.6281953 C10.7631525,34.900437 10.5307903,35.1213868 10.2433264,35.1213868" id="Fill-35" fill="#48515A"></path>
            <path d="M10.2438463,23.7794621 C10.1762689,23.7794621 10.1092113,23.7646664 10.0416339,23.7400068 C9.97925478,23.7153472 9.92155409,23.681317 9.87476974,23.6315047 C9.78172087,23.5427302 9.72402017,23.4149936 9.72402017,23.2862706 C9.72402017,23.2221557 9.73493652,23.158534 9.76560626,23.0944191 C9.79159757,23.0352362 9.82850522,22.9809851 9.87476974,22.9361047 C10.0671054,22.7536238 10.4153889,22.7536238 10.6082443,22.9361047 C10.6597071,22.9809851 10.696095,23.0352362 10.7220863,23.0944191 C10.7480776,23.158534 10.7636723,23.2221557 10.7636723,23.2862706 C10.7636723,23.4149936 10.7070113,23.5427302 10.6082443,23.6315047 C10.5146757,23.7252111 10.379001,23.7794621 10.2438463,23.7794621" id="Fill-36" fill="#48515A"></path>
            <path d="M10.2438463,37.5888238 C10.104013,37.5888238 9.97405652,37.5345728 9.87476974,37.4408664 C9.78172087,37.3520919 9.72402017,37.2243553 9.72402017,37.0956323 C9.72402017,36.9624706 9.78172087,36.834734 9.87476974,36.7454664 C9.92155409,36.7010791 9.97925478,36.6616238 10.0416339,36.6374574 C10.1715904,36.5881383 10.3171417,36.5881383 10.4413802,36.6374574 C10.5037593,36.6616238 10.56146,36.7010791 10.6082443,36.7454664 C10.7070113,36.834734 10.7636723,36.9624706 10.7636723,37.0956323 C10.7636723,37.2243553 10.7070113,37.3520919 10.6082443,37.4408664 C10.5146757,37.5345728 10.379001,37.5888238 10.2438463,37.5888238" id="Fill-37" fill="#48515A"></path>
            <path d="M6.60506365,24.7017302 C6.46523043,24.7017302 6.33527391,24.6479723 6.23598713,24.5587047 C6.18972261,24.5148106 6.15281496,24.4605596 6.12214522,24.3959515 C6.09615391,24.3372617 6.08523757,24.2726536 6.08523757,24.2085387 C6.08523757,24.0808021 6.13774,23.9520791 6.23598713,23.8583728 C6.42832278,23.6758919 6.78180452,23.6758919 6.96946174,23.8583728 C7.0682287,23.9520791 7.12488974,24.0808021 7.12488974,24.2085387 C7.12488974,24.2726536 7.10929496,24.3372617 7.08330365,24.3959515 C7.05731235,24.4605596 7.02092452,24.5148106 6.96946174,24.5587047 C6.87589304,24.6479723 6.74021843,24.7017302 6.60506365,24.7017302" id="Fill-38" fill="#48515A"></path>
            <path d="M13.8826289,36.6616238 C13.7427957,36.6616238 13.6128391,36.607866 13.5135523,36.5185983 C13.4205035,36.4248919 13.3628028,36.2971553 13.3628028,36.1684323 C13.3628028,36.0406957 13.4205035,35.9119728 13.5135523,35.8182664 C13.5603367,35.7743723 13.6180374,35.7393557 13.685095,35.7146962 C13.8727522,35.6412106 14.1061541,35.6851047 14.247027,35.8182664 C14.3457939,35.9119728 14.402455,36.0406957 14.402455,36.1684323 C14.402455,36.2971553 14.3457939,36.4248919 14.247027,36.5185983 C14.2257141,36.538326 14.2002426,36.5580536 14.1685332,36.5777813 C14.1425419,36.5980021 14.1118722,36.6123047 14.0801628,36.6221685 C14.049493,36.6374574 14.0177837,36.6473213 13.9819157,36.65176 C13.9502063,36.6571851 13.9143383,36.6616238 13.8826289,36.6616238" id="Fill-39" fill="#48515A"></path>
            <path d="M3.93835583,27.2318026 C3.80372087,27.2318026 3.66856609,27.1775515 3.57447757,27.0838451 C3.47623043,26.9950706 3.41852974,26.867334 3.41852974,26.7386111 C3.41852974,26.7045809 3.423728,26.6744962 3.42944609,26.640466 C3.43932278,26.6108745 3.44452104,26.5758579 3.46063565,26.5467596 C3.47051235,26.5171681 3.49130539,26.4875766 3.50690017,26.4624238 C3.52769322,26.4377643 3.54848626,26.4081728 3.57447757,26.3884451 C3.69455739,26.2750111 3.8759767,26.22076 4.04284087,26.2552834 C4.07351061,26.2607085 4.11041826,26.2705723 4.141088,26.2804362 C4.17279739,26.2947387 4.19826887,26.3100277 4.22945843,26.3243302 C4.25596957,26.3440579 4.28196087,26.3642787 4.30743235,26.3884451 C4.33342365,26.4081728 4.3542167,26.4377643 4.3703313,26.4624238 C4.39112435,26.4875766 4.40671913,26.5171681 4.42179409,26.5467596 C4.43271043,26.5758579 4.44258713,26.6108745 4.44830522,26.640466 C4.45818191,26.6744962 4.45818191,26.7045809 4.45818191,26.7386111 C4.45818191,26.867334 4.40671913,26.9950706 4.30743235,27.0838451 C4.28196087,27.1085047 4.25596957,27.1282323 4.22945843,27.14796 C4.19826887,27.1632489 4.17279739,27.1775515 4.141088,27.1923472 C4.11041826,27.2022111 4.07351061,27.2120749 4.04284087,27.2219387 C4.01113148,27.2273638 3.97526348,27.2318026 3.93835583,27.2318026" id="Fill-40" fill="#48515A"></path>
            <path d="M16.5441384,34.1364834 C16.5134687,34.1364834 16.4770809,34.1320447 16.4453715,34.1266196 C16.4095035,34.1167557 16.3777941,34.1068919 16.3471243,34.0970281 C16.315415,34.0822323 16.2842254,34.0679298 16.2587539,34.0526409 C16.2270445,34.0329132 16.2010532,34.0131855 16.1802602,33.988526 C16.082013,33.8997515 16.0243123,33.7720149 16.0243123,33.6432919 C16.0243123,33.5101302 16.082013,33.3819004 16.1802602,33.293126 C16.2010532,33.2689596 16.2270445,33.2487387 16.2587539,33.233943 C16.2842254,33.2147085 16.315415,33.1994196 16.3471243,33.185117 C16.3777941,33.1752532 16.4095035,33.1653894 16.4453715,33.1599643 C16.5493367,33.1402366 16.6486235,33.1501004 16.7468706,33.185117 C16.8092497,33.2092834 16.8669504,33.2487387 16.913215,33.293126 C17.0125017,33.3868323 17.0639645,33.5101302 17.0639645,33.6432919 C17.0639645,33.7720149 17.0125017,33.8997515 16.913215,33.988526 C16.8669504,34.0383383 16.8092497,34.0723685 16.7468706,34.0970281 C16.6792932,34.1216877 16.6117158,34.1364834 16.5441384,34.1364834" id="Fill-41" fill="#48515A"></path>
            <path d="M2.96628104,30.684143 C2.82644783,30.684143 2.6964913,30.6298919 2.59720452,30.5361855 C2.50415565,30.4474111 2.44645496,30.3196745 2.44645496,30.1909515 C2.44645496,30.1223979 2.4573713,30.0632149 2.48804104,29.9991 C2.51403235,29.939917 2.55042017,29.885666 2.59720452,29.8407855 C2.78954017,29.6583047 3.13782365,29.6583047 3.33067913,29.8407855 C3.38214191,29.885666 3.41852974,29.939917 3.44452104,29.9991 C3.47051235,30.0632149 3.48610713,30.1223979 3.48610713,30.1909515 C3.48610713,30.3196745 3.42944609,30.4474111 3.33067913,30.5361855 C3.23711043,30.6298919 3.10143583,30.684143 2.96628104,30.684143" id="Fill-42" fill="#48515A"></path>
            <path d="M17.5214115,30.684143 C17.3815783,30.684143 17.2516217,30.6298919 17.152335,30.5361855 C17.1060704,30.4922915 17.0691628,30.4375472 17.038493,30.3788574 C17.0125017,30.3196745 17.0015854,30.2555596 17.0015854,30.1909515 C17.0015854,30.1223979 17.0125017,30.0632149 17.038493,29.9991 C17.0691628,29.939917 17.1060704,29.885666 17.152335,29.8407855 C17.3446706,29.6583047 17.6981523,29.6583047 17.8858096,29.8407855 C17.9372723,29.885666 17.9736602,29.939917 17.9996515,29.9991 C18.0256428,30.0632149 18.0412376,30.1223979 18.0412376,30.1909515 C18.0412376,30.2555596 18.0256428,30.3196745 17.9996515,30.3788574 C17.9736602,30.4375472 17.9372723,30.4922915 17.8858096,30.5361855 C17.7922409,30.6298919 17.6565663,30.684143 17.5214115,30.684143" id="Fill-43" fill="#48515A"></path>
            <path d="M3.93835583,34.1364834 C3.80372087,34.1364834 3.66856609,34.0822323 3.57447757,33.988526 C3.52301478,33.9446319 3.48610713,33.8898877 3.46063565,33.8311979 C3.43464435,33.7720149 3.41852974,33.7079 3.41852974,33.6432919 C3.41852974,33.5101302 3.47623043,33.3819004 3.57447757,33.293126 C3.76681322,33.1106451 4.1150967,33.1106451 4.30743235,33.293126 C4.40671913,33.3819004 4.45818191,33.5101302 4.45818191,33.6432919 C4.45818191,33.7079 4.44830522,33.7720149 4.42179409,33.8311979 C4.39580278,33.8898877 4.3542167,33.9446319 4.30743235,33.988526 C4.28196087,34.0131855 4.25596957,34.0329132 4.22945843,34.0526409 C4.19826887,34.0679298 4.17279739,34.0822323 4.141088,34.0970281 C4.11041826,34.1068919 4.07351061,34.1167557 4.04284087,34.1266196 C4.01113148,34.1320447 3.97526348,34.1364834 3.93835583,34.1364834" id="Fill-44" fill="#48515A"></path>
            <path d="M16.5441384,27.2318026 C16.5134687,27.2318026 16.4770809,27.2273638 16.4453715,27.2219387 C16.4095035,27.2120749 16.3777941,27.2022111 16.3471243,27.1923472 C16.315415,27.1775515 16.2842254,27.1632489 16.2587539,27.14796 C16.2270445,27.1282323 16.2010532,27.1085047 16.1802602,27.0838451 C16.082013,26.9950706 16.0243123,26.867334 16.0243123,26.7386111 C16.0243123,26.6054494 16.082013,26.4772196 16.1802602,26.3884451 C16.2010532,26.3642787 16.2270445,26.3440579 16.2587539,26.3243302 C16.2842254,26.3100277 16.315415,26.2947387 16.3471243,26.2804362 C16.3777941,26.2705723 16.4095035,26.2607085 16.4453715,26.2552834 C16.5493367,26.2355557 16.6486235,26.2454196 16.7468706,26.2804362 C16.8092497,26.3046026 16.8669504,26.3440579 16.913215,26.3884451 C17.0125017,26.4772196 17.0639645,26.6054494 17.0639645,26.7386111 C17.0639645,26.867334 17.0125017,26.9950706 16.913215,27.0838451 C16.8669504,27.1336574 16.8092497,27.1676877 16.7468706,27.1923472 C16.6792932,27.2170068 16.6117158,27.2318026 16.5441384,27.2318026" id="Fill-45" fill="#48515A"></path>
            <path d="M6.60506365,36.6616238 C6.46523043,36.6616238 6.33527391,36.607866 6.23598713,36.5185983 C6.13774,36.4248919 6.08523757,36.2971553 6.08523757,36.1684323 C6.08523757,36.1048106 6.09615391,36.0406957 6.12214522,35.9815128 C6.15281496,35.9218366 6.18972261,35.8680787 6.23598713,35.8182664 C6.42832278,35.6357855 6.77660626,35.6357855 6.96946174,35.8182664 C7.02092452,35.8680787 7.05731235,35.9218366 7.08330365,35.9815128 C7.10929496,36.0406957 7.12488974,36.1048106 7.12488974,36.1684323 C7.12488974,36.2971553 7.0682287,36.4248919 6.96946174,36.5185983 C6.87589304,36.607866 6.74021843,36.6616238 6.60506365,36.6616238" id="Fill-46" fill="#48515A"></path>
            <path d="M13.8826289,24.7017302 C13.7427957,24.7017302 13.6128391,24.6479723 13.5135523,24.5587047 C13.4205035,24.4649983 13.3628028,24.3372617 13.3628028,24.2085387 C13.3628028,24.0808021 13.4205035,23.9520791 13.5135523,23.8583728 C13.6336322,23.7454319 13.8150515,23.6956196 13.9819157,23.7252111 C14.0177837,23.7306362 14.049493,23.7400068 14.0801628,23.7548026 C14.1118722,23.7646664 14.1425419,23.7794621 14.1685332,23.7991898 C14.2002426,23.8189174 14.2257141,23.8386451 14.247027,23.8583728 C14.3457939,23.9520791 14.402455,24.0808021 14.402455,24.2085387 C14.402455,24.3417004 14.3457939,24.4649983 14.247027,24.5587047 C14.1534583,24.6479723 14.0177837,24.7017302 13.8826289,24.7017302" id="Fill-47" fill="#48515A"></path>
            <path d="M44.0377402,15.9293332 L45.0773923,15.9293332 L45.0773923,13.9442374 L45.5109273,13.8746974 C46.3681205,13.7380834 47.1603355,13.4273728 47.8662593,12.9504566 L48.2249393,12.7082996 L49.7038445,14.1114294 L50.4393984,13.4140566 L48.9604932,12.0109268 L49.215208,11.6711179 C49.71736,11.001857 50.0453703,10.24974 50.1893621,9.43597404 L50.2626576,9.02465234 L52.3549576,9.02465234 L52.3549576,8.03826936 L50.2626576,8.03826936 L50.1893621,7.62694766 C50.0453703,6.8131817 49.71736,6.06106468 49.215208,5.39229702 L48.9599734,5.05248809 L50.4393984,3.6493583 L49.7038445,2.95149234 L48.2249393,4.35511532 L47.8662593,4.1129583 C47.1608553,3.63604213 46.3686403,3.32533149 45.5109273,3.18871745 L45.0773923,3.11917745 L45.0773923,1.13358851 L44.0377402,1.13358851 L44.0377402,3.11917745 L43.6042052,3.18871745 C42.747012,3.32533149 41.9542772,3.63604213 41.2488732,4.1129583 L40.8901932,4.35511532 L39.4118078,2.95149234 L38.6767737,3.6493583 L40.155679,5.05248809 L39.9004443,5.39229702 C39.3977725,6.06205106 39.0697623,6.81367489 38.9257704,7.62694766 L38.852475,8.03826936 L36.760175,8.03826936 L36.760175,9.02465234 L38.852475,9.02465234 L38.9257704,9.43597404 C39.0697623,10.2492468 39.3977725,11.0013638 39.9004443,11.6711179 L40.1551591,12.0109268 L38.6767737,13.4140566 L39.4118078,14.1114294 L40.8901932,12.7082996 L41.2488732,12.9504566 C41.954797,13.4273728 42.7475318,13.7380834 43.6042052,13.8746974 L44.0377402,13.9442374 L44.0377402,15.9293332 Z M46.1170445,16.9157162 L42.998088,16.9157162 L42.998088,14.7649081 C42.2937237,14.60758 41.6288661,14.3466817 41.0144317,13.9861587 L39.4118078,15.5061749 L37.2067056,13.4140566 L38.8093294,11.8935472 C38.4282969,11.3105949 38.1538287,10.679803 37.9874843,10.0110353 L35.7205228,10.0110353 L35.7205228,7.05188638 L37.9874843,7.05188638 C38.1538287,6.38311872 38.4288167,5.75282 38.8093294,5.16986766 L37.2067056,3.6493583 L39.4118078,1.55674681 L41.0144317,3.07725617 C41.6283463,2.71624 42.2932038,2.45583489 42.998088,2.29850681 L42.998088,0.147205532 L46.1170445,0.147205532 L46.1170445,2.29850681 C46.8224485,2.45583489 47.4867863,2.71624 48.1012207,3.07725617 L49.7038445,1.55674681 L51.9094666,3.6493583 L50.3068428,5.16986766 C50.6868357,5.75232681 50.9613038,6.38311872 51.1276482,7.05188638 L53.3946097,7.05188638 L53.3946097,10.0110353 L51.1276482,10.0110353 C50.9613038,10.6802962 50.6868357,11.3105949 50.3068428,11.8935472 L51.9094666,13.4140566 L49.7038445,15.5061749 L48.1012207,13.9861587 C47.4862664,14.3466817 46.8219287,14.60758 46.1170445,14.7649081 L46.1170445,16.9157162 Z" id="Fill-48" fill="#48515A"></path>
            <path d="M44.5575663,7.05188638 C43.6977739,7.05188638 42.998088,7.71572213 42.998088,8.53146085 C42.998088,9.34769277 43.6977739,10.0110353 44.5575663,10.0110353 C45.4173586,10.0110353 46.1170445,9.34769277 46.1170445,8.53146085 C46.1170445,7.71572213 45.4173586,7.05188638 44.5575663,7.05188638 Z M44.5575663,10.9974183 C43.1244057,10.9974183 41.9584358,9.89118979 41.9584358,8.53146085 C41.9584358,7.17173191 43.1244057,6.0655034 44.5575663,6.0655034 C45.9907268,6.0655034 47.1566967,7.17173191 47.1566967,8.53146085 C47.1566967,9.89118979 45.9907268,10.9974183 44.5575663,10.9974183 Z" id="Fill-49" fill="#48515A"></path>
        </g>
    </g>
</svg>