<svg xmlns="http://www.w3.org/2000/svg" width="94" height="95" viewBox="0 0 94 95">
  <path fill="#4D4F53" d="M29.3484163,16.8651685 L29.3484163,21.8820225 C29.3484163,26.0449438 26.0520362,29.3539326 21.9049774,29.3539326 L7.44343891,29.3539326 C3.29638009,29.3539326 0,26.0449438 0,21.8820225 L0,7.47191011 C0,3.30898876 3.29638009,0 7.44343891,0 L21.7986425,0 C23.8190045,0 25.520362,1.70786517 25.520362,3.73595506 C25.520362,5.76404494 23.8190045,7.47191011 21.7986425,7.47191011 L7.44343891,7.47191011 L7.44343891,21.8820225 L21.7986425,21.8820225 L21.7986425,16.758427 C21.7986425,14.7303371 23.5,13.0224719 25.520362,13.0224719 C27.540724,13.0224719 29.3484163,14.7303371 29.3484163,16.8651685 Z M25.6266968,45.8988764 C23.6063348,45.8988764 21.9049774,47.6067416 21.9049774,49.6348315 L21.9049774,54.758427 L7.54977376,54.758427 L7.54977376,40.3483146 L21.9049774,40.3483146 C23.9253394,40.3483146 25.6266968,38.6404494 25.6266968,36.6123596 C25.6266968,34.5842697 23.9253394,32.8764045 21.9049774,32.8764045 L7.44343891,32.8764045 C3.29638009,32.8764045 0,36.1853933 0,40.3483146 L0,54.758427 C0,58.9213483 3.29638009,62.2303371 7.44343891,62.2303371 L21.7986425,62.2303371 C25.9457014,62.2303371 29.2420814,58.9213483 29.2420814,54.758427 L29.2420814,49.6348315 C29.3484163,47.6067416 27.6470588,45.8988764 25.6266968,45.8988764 Z M25.6266968,78.7752809 C23.6063348,78.7752809 21.9049774,80.4831461 21.9049774,82.511236 L21.9049774,87.6348315 L7.54977376,87.6348315 L7.54977376,73.2247191 L21.9049774,73.2247191 C23.9253394,73.2247191 25.6266968,71.5168539 25.6266968,69.488764 C25.6266968,67.4606742 23.9253394,65.6460674 21.9049774,65.6460674 L7.44343891,65.6460674 C3.29638009,65.6460674 0,68.9550562 0,73.1179775 L0,87.5280899 C0,91.6910112 3.29638009,95 7.44343891,95 L21.7986425,95 C25.9457014,95 29.2420814,91.6910112 29.2420814,87.5280899 L29.2420814,82.511236 C29.3484163,80.4831461 27.6470588,78.7752809 25.6266968,78.7752809 Z M90.2782805,10.8876404 L37.9615385,10.8876404 C35.9411765,10.8876404 34.239819,12.5955056 34.239819,14.6235955 C34.239819,16.6516854 35.9411765,18.3595506 37.9615385,18.3595506 L90.2782805,18.3595506 C92.2986425,18.3595506 94,16.6516854 94,14.6235955 C94,12.5955056 92.2986425,10.8876404 90.2782805,10.8876404 Z M90.2782805,43.7640449 L37.9615385,43.7640449 C35.9411765,43.7640449 34.239819,45.4719101 34.239819,47.5 C34.239819,49.5280899 35.9411765,51.2359551 37.9615385,51.2359551 L90.2782805,51.2359551 C92.2986425,51.2359551 94,49.5280899 94,47.5 C94,45.4719101 92.2986425,43.7640449 90.2782805,43.7640449 Z M90.2782805,76.6404494 L37.9615385,76.6404494 C35.9411765,76.6404494 34.239819,78.3483146 34.239819,80.3764045 C34.239819,82.4044944 35.9411765,84.1123596 37.9615385,84.1123596 L90.2782805,84.1123596 C92.2986425,84.1123596 94,82.4044944 94,80.3764045 C94,78.3483146 92.2986425,76.6404494 90.2782805,76.6404494 Z"/>
</svg>
