<svg xmlns="http://www.w3.org/2000/svg" width="97" height="119" viewBox="0 0 97 119">
  <path fill="#4D4F53" d="M74.2358168,48.8313932 C74.2358168,55.0082072 72.0088858,60.9379486 68.0498974,65.5087909 C66.4415584,67.3618351 63.7197538,67.4853714 61.9876964,66.0029361 C60.1319206,64.3969644 60.0082022,61.6791663 61.4928229,59.9496584 C64.090909,56.8612514 65.5755297,52.9080904 65.5755297,48.8313932 C65.5755297,39.4426359 57.9049896,31.7833866 48.5023922,31.7833866 C39.0997948,31.7833866 31.4292548,39.4426359 31.4292548,48.8313932 C31.4292548,58.2201504 39.0997948,65.8793998 48.5023922,65.8793998 C50.8530416,65.8793998 52.8325358,67.8559802 52.8325358,70.2031696 C52.8325358,72.5503589 50.8530416,74.5269393 48.5023922,74.5269393 C34.2747777,74.5269393 22.7689677,63.0380653 22.7689677,48.8313932 C22.7689677,34.624721 34.2747777,23.135847 48.5023922,23.135847 C62.7300067,23.135847 74.2358168,34.624721 74.2358168,48.8313932 Z M95.7628161,59.0849044 C95.0205058,62.2968477 93.9070403,65.5087909 92.5461381,68.5971979 C87.5974026,80.2096082 76.9576213,97.9988325 53.6985645,117.146956 C52.2139438,118.382319 50.358168,119 48.5023922,119 C46.6466164,119 44.7908406,118.382319 43.30622,117.146956 C20.1708815,97.9988325 9.40738186,80.0860719 4.45864637,68.5971979 C3.09774411,65.5087909 1.98427863,62.2968477 1.24196831,59.0849044 C0.994531531,58.2201504 0.994531531,57.7260053 0.870813144,57.4789328 C0.00478443345,52.9080904 -0.242652341,48.3372481 0.252221208,43.6428694 C2.60287056,19.5532949 22.5215309,0.899316707 46.7703348,0.0345627503 C46.7703348,0.0345627503 46.7703348,0.0345627503 46.7703348,0.0345627503 C60.0082022,-0.459582368 72.6274777,4.35833254 82.1537935,13.6235535 C91.6801094,22.7652382 97,35.1188662 97,48.4607844 C97,51.5491913 96.7525632,54.6375983 96.1339713,57.602469 C96.0102529,57.9730779 95.8865345,58.467223 95.7628161,59.0849044 Z M88.3397129,48.3372481 C88.3397129,37.4660555 84.0095693,27.3360805 76.215311,19.8003675 C68.4210526,12.2646544 58.028708,8.31149348 47.14149,8.68210232 C27.2228296,9.42332 10.8920025,24.7418187 8.91250831,44.5076234 C8.54135315,48.3372481 8.66507154,52.1668727 9.40738186,55.8729611 C9.40738186,55.8729611 9.40738186,55.9964974 9.40738186,55.9964974 C9.40738186,56.1200337 9.53110025,56.4906425 9.65481864,56.9847876 C10.2734106,59.7025858 11.1394393,62.4203839 12.3766232,64.8911095 C12.3766232,64.8911095 12.3766232,65.0146458 12.3766232,65.0146458 C16.8304851,75.6387659 26.8516745,92.069091 48.3786738,110.105388 C70.0293916,92.069091 79.9268626,75.6387659 84.3807245,65.0146458 C84.3807245,65.0146458 84.3807245,64.8911095 84.3807245,64.8911095 C85.49419,62.4203839 86.4839371,59.7025858 87.102529,56.9847876 C87.2262474,56.3671062 87.3499658,55.9964974 87.3499658,55.8729611 C87.3499658,55.8729611 87.3499658,55.7494248 87.3499658,55.7494248 C88.0922761,53.4022355 88.3397129,50.8079737 88.3397129,48.3372481 Z"/>
</svg>
