<svg xmlns="http://www.w3.org/2000/svg" width="149" height="149" viewBox="0 0 149 149">
  <defs>
    <filter id="path-a" width="102.3%" height="101.4%" x="-1.1%" y="-.7%" filterUnits="objectBoundingBox">
      <feOffset dx="1" dy="1" in="SourceAlpha" result="shadowOffsetOuter1"/>
      <feGaussianBlur in="shadowOffsetOuter1" result="shadowBlurOuter1" stdDeviation="7.5"/>
      <feColorMatrix in="shadowBlurOuter1" result="shadowMatrixOuter1" values="0 0 0 0 0.519451531   0 0 0 0 0.519451531   0 0 0 0 0.519451531  0 0 0 0.269559556 0"/>
      <feMerge>
        <feMergeNode in="shadowMatrixOuter1"/>
        <feMergeNode in="SourceGraphic"/>
      </feMerge>
    </filter>
  </defs>
  <path fill="#4D4F53" d="M57.2298917,40.5947874 L66.5104146,27.3585981 C66.5104146,27.2248992 66.6393108,27.2248992 66.6393108,27.0912003 C71.7951569,20.673654 79.4000299,16.9300853 87.3915913,16.9300853 L104.019195,16.9300853 L95.2542566,7.97226018 C93.4497105,6.10047583 93.4497105,3.15910043 95.1253604,1.42101496 C96.9299066,-0.450769388 99.7656219,-0.450769388 101.441272,1.28731608 L118.326668,18.400773 C119.228941,19.3366652 119.744526,20.5399551 119.744526,21.743245 C119.744526,22.946535 119.100045,24.1498249 118.326668,25.0857171 L101.570168,42.0654751 C100.667895,43.0013673 99.5078296,43.4024639 98.4766604,43.4024639 C97.316595,43.4024639 96.1565297,42.8676684 95.2542566,41.9317762 C93.4497105,40.0599919 93.5786066,37.1186165 95.3831528,35.380531 L104.148091,26.4227059 L87.5204875,26.4227059 C82.2357452,26.4227059 77.2087953,28.8292858 73.7285992,33.10765 L64.5769723,46.2101404 C63.6746993,47.4134304 62.2568416,48.0819248 60.9678801,48.0819248 C60.065607,48.0819248 59.1633339,47.814527 58.2610609,47.1460326 C56.1987224,45.6753449 55.6831378,42.7339695 57.2298917,40.5947874 Z M4.51136533,64.5268873 L37.8954688,64.5268873 C43.6957957,64.5268873 49.2383302,67.4682627 52.5896302,72.5488202 L66.5104146,92.3362547 C66.5104146,92.4699536 66.6393108,92.4699536 66.6393108,92.6036525 C71.7951569,99.0211988 79.4000299,102.764768 87.3915913,102.764768 L104.019195,102.764768 L95.2542566,111.722593 C93.4497105,113.594377 93.4497105,116.535752 95.1253604,118.273838 C96.0276335,119.20973 97.1876989,119.744526 98.3477643,119.744526 C99.5078296,119.744526 100.667895,119.343429 101.441272,118.407537 L118.326668,101.29408 C119.228941,100.358188 119.744526,99.1548977 119.744526,97.9516078 C119.744526,96.7483178 119.100045,95.5450279 118.326668,94.6091357 L101.570168,77.6293777 C99.7656219,75.7575934 96.9299066,75.8912922 95.2542566,77.7630766 C93.4497105,79.6348609 93.5786066,82.5762363 95.3831528,84.3143218 L104.148091,93.2721469 L88.2938644,93.2721469 L87.5204875,93.2721469 C82.2357452,93.2721469 77.2087953,90.865567 73.7285992,86.5872028 L65.2214531,74.4206045 L59.8078147,67.067166 C54.7808648,59.7137275 46.531511,55.1679655 37.7665726,55.1679655 L4.51136533,55.1679655 C2.06233844,55.1679655 0,57.3071476 0,59.8474264 C0,62.3877052 1.93344229,64.5268873 4.51136533,64.5268873 Z" filter="url(#path-a)" transform="translate(13.628 13.766)"/>
</svg>
