<svg xmlns="http://www.w3.org/2000/svg" width="125" height="155" viewBox="0 0 125 155">
  <defs>
    <filter id="ten-a" width="102.3%" height="101.4%" x="-1.1%" y="-.7%" filterUnits="objectBoundingBox">
      <feOffset dx="1" dy="1" in="SourceAlpha" result="shadowOffsetOuter1"/>
      <feGaussianBlur in="shadowOffsetOuter1" result="shadowBlurOuter1" stdDeviation="7.5"/>
      <feColorMatrix in="shadowBlurOuter1" result="shadowMatrixOuter1" values="0 0 0 0 0.519451531   0 0 0 0 0.519451531   0 0 0 0 0.519451531  0 0 0 0.269559556 0"/>
      <feMerge>
        <feMergeNode in="shadowMatrixOuter1"/>
        <feMergeNode in="SourceGraphic"/>
      </feMerge>
    </filter>
  </defs>
  <path fill="#4D4F53" d="M2.27373675e-13,21.3563023 L2.27373675e-13,7.29239591 C2.27373675e-13,3.22948962 3.23626374,0 7.30769231,0 L21.4010989,0 C23.3846154,0 25.0549451,1.66683335 25.0549451,3.64619795 C25.0549451,5.62556256 23.489011,7.18821882 21.4010989,7.18821882 L7.30769231,7.18821882 L7.30769231,21.2521252 L21.4010989,21.3563023 L21.4010989,16.3558022 C21.4010989,14.3764376 23.0714286,12.7096043 25.0549451,12.7096043 C27.0384615,12.7096043 28.7087912,14.3764376 28.7087912,16.3558022 L28.7087912,21.3563023 C28.7087912,25.4192086 25.4725275,28.6486982 21.4010989,28.6486982 L7.30769231,28.6486982 C3.23626374,28.6486982 2.27373675e-13,25.4192086 2.27373675e-13,21.3563023 Z M7.30769231,60.7352402 L21.4010989,60.7352402 C25.4725275,60.7352402 28.7087912,57.5057506 28.7087912,53.4428443 L28.7087912,48.4423442 C28.7087912,46.4629796 27.0384615,44.7961463 25.0549451,44.7961463 C23.0714286,44.7961463 21.4010989,46.4629796 21.4010989,48.4423442 L21.4010989,53.4428443 L7.30769231,53.4428443 L7.30769231,39.3789379 L21.4010989,39.3789379 C23.3846154,39.3789379 25.0549451,37.7121045 25.0549451,35.7327399 C25.0549451,33.7533753 23.489011,31.9823649 21.4010989,31.9823649 L7.30769231,31.9823649 C3.23626374,31.9823649 2.27373675e-13,35.2118545 2.27373675e-13,39.2747608 L2.27373675e-13,53.3386672 C2.27373675e-13,57.4015735 3.23626374,60.7352402 7.30769231,60.7352402 Z M7.30769231,92.8217822 L21.4010989,92.8217822 C25.4725275,92.8217822 28.7087912,89.5922926 28.7087912,85.5293863 L28.7087912,80.6330633 C28.7087912,78.6536987 27.0384615,76.9868654 25.0549451,76.9868654 C23.0714286,76.9868654 21.4010989,78.5495216 21.4010989,80.5288862 L21.4010989,85.5293863 L7.30769231,85.5293863 L7.30769231,71.4654799 L21.4010989,71.4654799 C23.3846154,71.4654799 25.0549451,69.7986465 25.0549451,67.8192819 C25.0549451,65.8399173 23.489011,64.0689069 21.4010989,64.0689069 L7.30769231,64.0689069 C3.23626374,64.0689069 2.27373675e-13,67.2983965 2.27373675e-13,71.3613028 L2.27373675e-13,85.4252092 C2.27373675e-13,89.4881155 3.23626374,92.8217822 7.30769231,92.8217822 Z M7.30769231,125 L21.4010989,125 C25.4725275,125 28.7087912,121.77051 28.7087912,117.707604 L28.7087912,112.811281 C28.7087912,110.831917 27.0384615,109.165083 25.0549451,109.165083 C23.0714286,109.165083 21.4010989,110.727739 21.4010989,112.707104 L21.4010989,117.707604 L7.30769231,117.707604 L7.30769231,103.643698 L21.4010989,103.643698 C23.3846154,103.643698 25.0549451,101.976864 25.0549451,99.9974997 C25.0549451,98.0181351 23.489011,96.2471247 21.4010989,96.2471247 L7.30769231,96.2471247 C3.23626374,96.2471247 2.27373675e-13,99.4766143 2.27373675e-13,103.539521 L2.27373675e-13,117.603427 C2.27373675e-13,121.666333 3.23626374,125 7.30769231,125 Z M40.4010989,28.6486982 L54.4945055,28.6486982 C58.5659341,28.6486982 61.8021978,25.4192086 61.8021978,21.3563023 L61.8021978,16.4599793 C61.8021978,14.4806147 60.1318681,12.8137814 58.1483516,12.8137814 C56.1648352,12.8137814 54.4945055,14.4806147 54.4945055,16.4599793 L54.4945055,21.4604794 L40.4010989,21.4604794 L40.4010989,7.39657299 L54.4945055,7.39657299 C56.478022,7.39657299 58.1483516,5.72973964 58.1483516,3.75037504 C58.1483516,1.77101043 56.478022,0.104177084 54.4945055,0.104177084 L40.4010989,0.104177084 C36.3296703,0.104177084 33.0934066,3.3336667 33.0934066,7.39657299 L33.0934066,21.3563023 C33.0934066,25.4192086 36.4340659,28.6486982 40.4010989,28.6486982 Z M40.4010989,60.7352402 L54.4945055,60.7352402 C58.5659341,60.7352402 61.8021978,57.5057506 61.8021978,53.4428443 L61.8021978,48.4423442 C61.8021978,46.4629796 60.1318681,44.7961463 58.1483516,44.7961463 C56.1648352,44.7961463 54.4945055,46.4629796 54.4945055,48.4423442 L54.4945055,53.4428443 L40.4010989,53.4428443 L40.4010989,39.3789379 L54.4945055,39.3789379 C56.478022,39.3789379 58.1483516,37.7121045 58.1483516,35.7327399 C58.1483516,33.7533753 56.478022,32.086542 54.4945055,32.086542 L40.4010989,32.086542 C36.3296703,32.086542 33.0934066,35.3160316 33.0934066,39.3789379 L33.0934066,53.4428443 C33.0934066,57.4015735 36.4340659,60.7352402 40.4010989,60.7352402 Z M40.4010989,92.8217822 L54.4945055,92.8217822 C58.5659341,92.8217822 61.8021978,89.5922926 61.8021978,85.5293863 L61.8021978,80.6330633 C61.8021978,78.6536987 60.1318681,76.9868654 58.1483516,76.9868654 C56.1648352,76.9868654 54.4945055,78.6536987 54.4945055,80.6330633 L54.4945055,85.6335634 L40.4010989,85.6335634 L40.4010989,71.569657 L54.4945055,71.569657 C56.478022,71.569657 58.1483516,69.9028236 58.1483516,67.923459 C58.1483516,65.9440944 56.5824176,64.0689069 54.5989011,64.0689069 L40.4010989,64.0689069 C36.3296703,64.0689069 33.0934066,67.2983965 33.0934066,71.3613028 L33.0934066,85.4252092 C33.0934066,89.4881155 36.4340659,92.8217822 40.4010989,92.8217822 Z M73.5989011,28.6486982 L87.6923077,28.6486982 C91.7637363,28.6486982 95,25.4192086 95,21.3563023 L95,16.4599793 C95,14.4806147 93.3296703,12.8137814 91.3461538,12.8137814 C89.3626374,12.8137814 87.6923077,14.4806147 87.6923077,16.4599793 L87.6923077,21.4604794 L73.5989011,21.3563023 L73.5989011,7.29239591 L87.6923077,7.29239591 C89.6758242,7.29239591 91.3461538,5.62556256 91.3461538,3.64619795 C91.3461538,1.66683335 89.6758242,0 87.6923077,0 L73.5989011,0 C69.5274725,0 66.2912088,3.22948962 66.2912088,7.29239591 L66.2912088,21.3563023 C66.2912088,25.4192086 69.5274725,28.6486982 73.5989011,28.6486982 Z M73.5989011,60.7352402 L87.6923077,60.7352402 C91.7637363,60.7352402 95,57.5057506 95,53.4428443 L95,48.4423442 C95,46.4629796 93.3296703,44.7961463 91.3461538,44.7961463 C89.3626374,44.7961463 87.6923077,46.4629796 87.6923077,48.4423442 L87.6923077,53.4428443 L73.5989011,53.4428443 L73.5989011,39.3789379 L87.6923077,39.3789379 C89.6758242,39.3789379 91.3461538,37.7121045 91.3461538,35.7327399 C91.3461538,33.7533753 89.6758242,32.086542 87.6923077,32.086542 L73.5989011,32.086542 C69.5274725,32.086542 66.2912088,35.3160316 66.2912088,39.3789379 L66.2912088,53.4428443 C66.2912088,57.4015735 69.5274725,60.7352402 73.5989011,60.7352402 Z M73.5989011,92.8217822 L87.6923077,92.8217822 C91.7637363,92.8217822 95,89.5922926 95,85.5293863 L95,80.6330633 C95,78.6536987 93.3296703,76.9868654 91.3461538,76.9868654 C89.3626374,76.9868654 87.6923077,78.6536987 87.6923077,80.6330633 L87.6923077,85.6335634 L73.5989011,85.6335634 L73.5989011,71.3613028 L87.6923077,71.3613028 C89.6758242,71.3613028 91.3461538,69.6944694 91.3461538,67.7151048 C91.3461538,65.7357402 89.7802198,64.0689069 87.6923077,64.0689069 L73.5989011,64.0689069 C69.5274725,64.0689069 66.2912088,67.2983965 66.2912088,71.3613028 L66.2912088,85.4252092 C66.2912088,89.4881155 69.5274725,92.8217822 73.5989011,92.8217822 Z" filter="url(#ten-a)" transform="translate(14 14)"/>
</svg>
