<svg xmlns="http://www.w3.org/2000/svg" width="146" height="146" viewBox="0 0 146 146">
  <defs>
    <filter id="zoom-a" width="102.3%" height="101.4%" x="-1.1%" y="-.7%" filterUnits="objectBoundingBox">
      <feOffset dx="1" dy="1" in="SourceAlpha" result="shadowOffsetOuter1"/>
      <feGaussianBlur in="shadowOffsetOuter1" result="shadowBlurOuter1" stdDeviation="7.5"/>
      <feColorMatrix in="shadowBlurOuter1" result="shadowMatrixOuter1" values="0 0 0 0 0.519451531   0 0 0 0 0.519451531   0 0 0 0 0.519451531  0 0 0 0.269559556 0"/>
      <feMerge>
        <feMergeNode in="shadowMatrixOuter1"/>
        <feMergeNode in="SourceGraphic"/>
      </feMerge>
    </filter>
  </defs>
  <path fill="#4D4F53" d="M58.9143066,0 C61.1894526,0 63.105365,1.91591241 63.105365,4.19105839 L63.105365,18.5604015 C63.105365,18.680146 63.105365,18.680146 63.105365,18.7998905 C63.105365,18.919635 63.105365,18.919635 63.105365,19.0393796 L63.105365,33.4087226 C63.105365,35.6838686 61.1894526,37.599781 58.9143066,37.599781 C56.6391606,37.599781 54.7232482,35.6838686 54.7232482,33.4087226 L54.7232482,23.230438 C45.5029197,24.3081387 37.1208029,28.8584307 31.1335766,36.0431022 C30.295365,37.0010584 29.0979197,37.599781 27.9004745,37.599781 C26.9425182,37.599781 25.984562,37.2405474 25.2660949,36.6418248 C23.469927,35.2048905 23.230438,32.5705109 24.6673723,30.7743431 C32.2112774,21.5540146 42.9882847,15.9260219 54.7232482,14.8483212 L54.7232482,4.19105839 C54.7232482,1.79616788 56.5194161,0 58.9143066,0 Z M58.9143066,80.2288321 C56.6391606,80.2288321 54.7232482,82.1447445 54.7232482,84.4198905 L54.7232482,113.637555 C54.7232482,115.912701 56.6391606,117.828613 58.9143066,117.828613 C61.1894526,117.828613 63.105365,115.912701 63.105365,113.637555 L63.105365,102.980292 C74.8403285,101.902591 85.6173358,96.2745985 93.1612409,87.0542701 C94.5981752,85.2581022 94.3586861,82.6237226 92.5625182,81.1867883 C90.7663504,79.749854 88.1319708,79.9893431 86.6950365,81.7855109 C80.7078102,88.9701825 72.3256934,93.5204745 63.105365,94.5981752 L63.105365,84.4198905 C63.105365,82.1447445 61.1894526,80.2288321 58.9143066,80.2288321 Z M37.4800365,58.9143066 C37.4800365,56.6391606 35.5641241,54.7232482 33.2889781,54.7232482 L4.19105839,54.7232482 C1.91591241,54.7232482 0,56.6391606 0,58.9143066 C0,61.1894526 1.91591241,63.105365 4.19105839,63.105365 L14.7285766,63.105365 C15.8062774,74.8403285 21.4342701,85.6173358 30.6545985,93.1612409 C31.4928102,93.7599635 32.3310219,94.1191971 33.2889781,94.1191971 C34.4864234,94.1191971 35.6838686,93.640219 36.5220803,92.5625182 C37.9590146,90.7663504 37.7195255,88.1319708 35.9233577,86.6950365 C28.6189416,80.7078102 24.0686496,72.3256934 23.1106934,63.105365 L33.2889781,63.105365 C35.5641241,63.105365 37.4800365,61.1894526 37.4800365,58.9143066 Z M94.5981752,54.7232482 L84.4198905,54.7232482 C82.1447445,54.7232482 80.2288321,56.6391606 80.2288321,58.9143066 C80.2288321,61.1894526 82.1447445,63.105365 84.4198905,63.105365 L98.7892336,63.105365 C98.9089781,63.105365 98.9089781,63.105365 99.0287226,63.105365 C99.1484672,63.105365 99.1484672,63.105365 99.2682117,63.105365 L113.637555,63.105365 C115.912701,63.105365 117.828613,61.1894526 117.828613,58.9143066 C117.828613,56.6391606 115.912701,54.7232482 113.637555,54.7232482 L102.980292,54.7232482 C101.902591,42.9882847 96.154854,32.2112774 86.9345255,24.6673723 C85.1383577,23.230438 82.5039781,23.469927 81.0670438,25.2660949 C79.6301095,27.0622628 79.8695985,29.6966423 81.6657664,31.1335766 C88.9701825,37.1208029 93.5204745,45.5029197 94.5981752,54.7232482 Z M58.9143066,54.1245255 C56.279927,54.1245255 54.1245255,56.279927 54.1245255,58.9143066 C54.1245255,61.5486861 56.279927,63.7040876 58.9143066,63.7040876 C61.5486861,63.7040876 63.7040876,61.5486861 63.7040876,58.9143066 C63.7040876,56.279927 61.5486861,54.1245255 58.9143066,54.1245255 Z" filter="url(#zoom-a)" transform="translate(13.248 13.387)"/>
</svg>
